<?xml version="1.0" encoding="utf-8"?>
<!-- Generator: Adobe Illustrator 22.1.0, SVG Export Plug-In . SVG Version: 6.00 Build 0)  -->
<svg version="1.1" id="Calque_1" xmlns="http://www.w3.org/2000/svg" xmlns:xlink="http://www.w3.org/1999/xlink" x="0px" y="0px"
	 viewBox="0 0 42.5 42.5" style="enable-background:new 0 0 42.5 42.5;" xml:space="preserve">
<style type="text/css">
	.st0{fill:#7289DA;}
	.st1{fill:#FFFFFF;}
</style>
<g>
	<polygon class="st0" points="4,11.4 4,31.6 21.5,41.7 39,31.6 39,11.4 21.5,1.3 	"/>
</g>
<path class="st1" d="M26.3,28.5c0,0-0.6-0.7-1.1-1.4c2.2-0.6,3.1-2,3.1-2c-0.7,0.5-1.4,0.8-2,1c-0.9,0.4-1.7,0.6-2.5,0.7
	c-1.6,0.3-3.2,0.2-4.4,0c-1-0.2-1.8-0.5-2.5-0.7c-0.4-0.2-0.8-0.3-1.3-0.6c-0.1,0-0.1-0.1-0.2-0.1c0,0-0.1,0-0.1-0.1
	C15,25.1,14.9,25,14.9,25s0.8,1.4,3,2c-0.5,0.7-1.1,1.4-1.1,1.4c-3.8-0.1-5.2-2.6-5.2-2.6c0-5.5,2.5-10,2.5-10
	c2.5-1.8,4.8-1.8,4.8-1.8l0.2,0.2c-3.1,0.9-4.5,2.2-4.5,2.2s0.4-0.2,1-0.5c1.8-0.8,3.3-1,3.9-1.1c0.1,0,0.2,0,0.3,0
	c1.1-0.1,2.3-0.2,3.5,0c1.6,0.2,3.4,0.7,5.2,1.6c0,0-1.4-1.3-4.3-2.2l0.2-0.3c0,0,2.3-0.1,4.8,1.8c0,0,2.5,4.5,2.5,10
	C31.5,25.8,30,28.3,26.3,28.5z M18.3,20.5c-1,0-1.7,0.9-1.7,1.9s0.8,1.9,1.7,1.9c1,0,1.7-0.9,1.7-1.9C20.1,21.3,19.3,20.5,18.3,20.5
	z M24.5,20.5c-1,0-1.7,0.9-1.7,1.9s0.8,1.9,1.7,1.9c1,0,1.7-0.9,1.7-1.9S25.5,20.5,24.5,20.5z"/>
</svg>
