<svg width="40" height="40" xmlns="http://www.w3.org/2000/svg"><g fill="none" fill-rule="evenodd"><rect fill="#7289DA" width="40" height="40" rx="20"/><path d="M24.7603 27.3837s-.6165-.7363-1.1302-1.387c2.2432-.6335 3.0994-2.0377 3.0994-2.0377-.7021.4624-1.37.7877-1.9692 1.0103-.8562.3596-1.6781.5993-2.4829.7363-1.6438.3082-3.1507.2226-4.435-.0171-.976-.1884-1.815-.4623-2.517-.7363-.3939-.1541-.822-.3425-1.25-.5822-.0514-.0342-.1028-.0514-.1542-.0856-.0342-.0171-.0513-.0343-.0685-.0514-.3082-.1712-.4794-.291-.4794-.291s.822 1.3698 2.9966 2.0205c-.5137.6507-1.1473 1.4212-1.1473 1.4212C11.4384 27.2638 10 24.781 10 24.781c0-5.5137 2.4658-9.983 2.4658-9.983 2.4657-1.8492 4.8116-1.7979 4.8116-1.7979l.1712.2055c-3.0822.8904-4.5034 2.2432-4.5034 2.2432s.3767-.2055 1.0103-.4966c1.8322-.8048 3.2877-1.0274 3.887-1.0788.1027-.017.1883-.0342.291-.0342a14.4884 14.4884 0 0 1 3.459-.0343c1.6267.1884 3.3733.6678 5.154 1.6439 0 0-1.3527-1.2843-4.2636-2.1747l.2397-.274s2.3459-.0513 4.8116 1.798c0 0 2.4658 4.4692 2.4658 9.9829 0 0-1.4555 2.4828-5.2397 2.6027zm-7.9624-7.9966c-.976 0-1.7465.8562-1.7465 1.9007 0 1.0445.7876 1.9007 1.7465 1.9007.976 0 1.7466-.8562 1.7466-1.9007.0171-1.0445-.7705-1.9007-1.7466-1.9007zm6.25 0c-.976 0-1.7465.8562-1.7465 1.9007 0 1.0445.7876 1.9007 1.7465 1.9007.976 0 1.7466-.8562 1.7466-1.9007 0-1.0445-.7705-1.9007-1.7466-1.9007z" fill="#FFF" fill-rule="nonzero"/></g></svg>
