<?xml version="1.0" encoding="utf-8"?>
<!-- Generator: Adobe Illustrator 22.1.0, SVG Export Plug-In . SVG Version: 6.00 Build 0)  -->
<svg version="1.1" id="Calque_1" xmlns="http://www.w3.org/2000/svg" xmlns:xlink="http://www.w3.org/1999/xlink" x="0px" y="0px"
	 viewBox="0 0 42.5 42.5" style="enable-background:new 0 0 42.5 42.5;" xml:space="preserve">
<style type="text/css">
	.st0{fill:#6441A5;}
	.st1{fill:#FFFFFF;}
</style>
<g>
	<polygon class="st0" points="4,11.4 4,31.6 21.5,41.7 39,31.6 39,11.4 21.5,1.3 	"/>
</g>
<path class="st1" d="M22.1,10.8c3.5,0,6.9,0,10.4,0c0.2,0,0.3,0.1,0.3,0.3c0,4.6,0,9.1,0,13.7c0,0.2-0.1,0.3-0.2,0.4
	c-2,2-4.1,4.1-6.1,6.1c-0.1,0.1-0.3,0.2-0.4,0.2c-1.3,0-2.5,0-3.8,0c-0.1,0-0.3,0.1-0.4,0.2c-0.8,0.8-1.7,1.7-2.5,2.5
	c-0.1,0.1-0.3,0.2-0.4,0.2c-1,0-2.1,0-3.1,0c-0.2,0-0.2-0.1-0.2-0.2c0-0.8,0-1.6,0-2.4c0-0.2-0.1-0.3-0.3-0.3c-1.7,0-3.5,0-5.2,0
	c-0.2,0-0.3-0.1-0.3-0.3c0-5.3,0-10.6,0-15.9c0-0.1,0-0.3,0.1-0.4c0.4-1.3,0.9-2.6,1.3-3.9c0.1-0.2,0.1-0.2,0.3-0.2
	C15.1,10.8,18.6,10.8,22.1,10.8z M18.5,30.7c0.1-0.1,0.1-0.1,0.2-0.2c0.8-0.8,1.6-1.6,2.4-2.4c0.1-0.1,0.3-0.2,0.5-0.2
	c1.7,0,3.5,0,5.2,0c0.1,0,0.3-0.1,0.4-0.2c1.1-1.1,2.2-2.2,3.2-3.2c0.1-0.1,0.2-0.3,0.2-0.4c0-3.6,0-7.3,0-10.9c0-0.2,0-0.3-0.3-0.3
	c-5.5,0-11.1,0-16.6,0c-0.2,0-0.3,0.1-0.3,0.3c0,4.8,0,9.6,0,14.4c0,0.2,0.1,0.3,0.3,0.3c1.5,0,2.9,0,4.4,0c0.3,0,0.3,0.1,0.3,0.3
	c0,0.7,0,1.5,0,2.2C18.5,30.5,18.5,30.6,18.5,30.7z"/>
<path class="st1" d="M25.6,20.5c0-1.1,0-2.3,0-3.4c0-0.2,0.1-0.3,0.3-0.3c0.7,0,1.3,0,2,0c0.2,0,0.3,0.1,0.3,0.3c0,2.3,0,4.6,0,6.9
	c0,0.2,0,0.3-0.3,0.3c-0.7,0-1.3,0-2,0c-0.2,0-0.3-0.1-0.3-0.3C25.6,22.9,25.6,21.7,25.6,20.5z"/>
<path class="st1" d="M21.5,20.6c0,1.1,0,2.3,0,3.4c0,0.2-0.1,0.3-0.3,0.3c-0.7,0-1.3,0-2,0c-0.2,0-0.2,0-0.2-0.2c0-2.3,0-4.6,0-7
	c0-0.2,0.1-0.2,0.2-0.2c0.7,0,1.3,0,2,0c0.2,0,0.3,0,0.3,0.3C21.5,18.3,21.5,19.4,21.5,20.6z"/>
</svg>
