<?xml version="1.0" encoding="utf-8"?>
<!-- Generator: Adobe Illustrator 22.1.0, SVG Export Plug-In . SVG Version: 6.00 Build 0)  -->
<svg version="1.1" id="Calque_1" xmlns="http://www.w3.org/2000/svg" xmlns:xlink="http://www.w3.org/1999/xlink" x="0px" y="0px"
	 viewBox="0 0 42.5 42.5" style="enable-background:new 0 0 42.5 42.5;" xml:space="preserve">
<style type="text/css">
	.st0{fill:#1DA0F2;}
	.st1{fill:#FDFEFE;}
</style>
<g>
	<polygon class="st0" points="4,11.4 4,31.6 21.5,41.7 39,31.6 39,11.4 21.5,1.3 	"/>
</g>
<path class="st1" d="M10.9,23.8c0.8,0.1,1.6,0.1,2.4-0.1C10.6,22.8,9.2,21,9,18.1c0.8,0.4,1.5,0.6,2.4,0.7c0-0.2-0.2-0.2-0.2-0.3
	C9.1,17,8.4,14,9.6,11.8c0.2-0.3,0.3-0.3,0.5,0c2.8,3.3,6.3,5.1,10.6,5.5c0.5,0,0.4-0.2,0.3-0.5c-0.3-2.5,0.9-4.8,3.2-5.9
	c2-0.9,4.4-0.5,6,1c0.2,0.2,0.4,0.3,0.7,0.2c1.1-0.3,2.1-0.7,3-1.2c-0.4,1.3-1.2,2.2-2.2,3c1,0,1.9-0.4,2.9-0.7
	c-0.6,1-1.4,1.8-2.3,2.6c-0.3,0.2-0.4,0.4-0.4,0.8c0.2,6.4-3.7,12.5-9.5,14.9c-4.8,2-9.6,1.6-14.2-1c-0.1,0-0.1-0.1-0.2-0.1
	c0,0,0,0,0-0.1c2.9,0.2,5.5-0.5,7.9-2.3C13.4,27.5,11.8,26.2,10.9,23.8z"/>
</svg>
